#N canvas 0 120 1920 1080 24;
#X obj 374 36 adc~;
#X obj 434 477 *~;
#X obj 413 572 *~;
#X floatatom 526 556 5 0 1 0 - - -;
#X obj 392 1023 dac~;
#X floatatom 750 20 5 0 0 0 bit_depth - -;
#X floatatom 752 216 5 0 0 0 resolution - -;
#X obj 803 316 expr 1/ $f1;
#X obj 371 295 expr~ round($v1 / $f2);
#X floatatom 754 411 5 0 0 0 - - -;
#X obj 422 869 bp~ 1700 1;
#X obj 419 678 lop~ 1700;
#X obj 420 765 hip~ 100;
#X obj 378 159 *~ 25;
#X text 196 677 low-pass filter;
#X text 190 767 high-pass filter;
#X text 192 866 band-pass filter;
#X text 299 1029 output;
#X text 605 559 Volume;
#X text 360 5 input;
#X obj 1045 973 writesf~ 2;
#X text 871 1008 Writes output to a file (records audio);
#X msg 1063 712 start;
#X msg 1179 715 stop;
#X text 906 462 create file;
#X text 1032 672 recording controls;
#X msg 913 496 open bitcrush.wav;
#X text 179 146 gain to affect distortion;
#X obj 752 136 expr pow(2 \, $f1);
#X text 982 136 (2^bit_depth);
#X connect 0 0 13 0;
#X connect 1 0 2 0;
#X connect 2 0 11 0;
#X connect 3 0 2 1;
#X connect 5 0 28 0;
#X connect 6 0 7 0;
#X connect 7 0 9 0;
#X connect 8 0 1 0;
#X connect 9 0 1 1;
#X connect 9 0 8 1;
#X connect 10 0 4 1;
#X connect 10 0 4 0;
#X connect 10 0 20 0;
#X connect 10 0 20 1;
#X connect 11 0 12 0;
#X connect 12 0 10 0;
#X connect 13 0 8 0;
#X connect 22 0 20 0;
#X connect 23 0 20 0;
#X connect 26 0 20 0;
#X connect 28 0 6 0;
