#N canvas 0 120 1920 1080 24;
#X obj 525 136 adc~;
#X obj 487 856 dac~;
#X obj 528 222 *~ 1;
#X obj 849 781 writesf~ 2;
#X text 675 816 Writes output to a file (records audio);
#X msg 1108 288 start;
#X msg 1224 291 stop;
#X text 951 38 create file;
#X text 1077 248 recording controls;
#X msg 958 72 open cyclone.wav;
#X text 595 136 input;
#X text 550 856 output;
#X obj 492 397 cyclone/overdrive~ 100;
#X obj 492 585 lop~ 1000;
#X connect 0 0 2 0;
#X connect 2 0 12 0;
#X connect 5 0 3 0;
#X connect 6 0 3 0;
#X connect 9 0 3 0;
#X connect 12 0 13 0;
#X connect 13 0 1 0;
#X connect 13 0 1 1;
#X connect 13 0 3 0;
#X connect 13 0 3 1;
